<?xml version="1.0" standalone="no"?>
<!DOCTYPE svg PUBLIC "-//W3C//DTD SVG 20010904//EN"
 "http://www.w3.org/TR/2001/REC-SVG-20010904/DTD/svg10.dtd">
<svg version="1.0" xmlns="http://www.w3.org/2000/svg"
 width="512.000000pt" height="512.000000pt" viewBox="0 0 512.000000 512.000000"
 preserveAspectRatio="xMidYMid meet">
<metadata>
Created by potrace 1.14, written by Peter Selinger 2001-2017
</metadata>
<g transform="translate(0.000000,512.000000) scale(0.100000,-0.100000)"
fill="#000000" stroke="none">
<path d="M0 2560 l0 -2560 2560 0 2560 0 0 1181 0 1182 -22 -28 c-12 -16 -23
-40 -24 -54 -1 -14 -2 -34 -3 -43 -1 -22 -58 -78 -79 -78 -11 0 -68 -74 -152
-195 -74 -107 -138 -194 -142 -195 -13 0 -39 60 -32 73 4 7 54 78 111 159 57
81 103 150 103 153 0 3 -33 5 -74 5 l-74 0 -71 -95 c-40 -52 -75 -95 -80 -95
-11 0 -75 -95 -111 -165 -16 -33 -51 -83 -77 -110 -27 -28 -111 -142 -188
-253 -77 -111 -143 -201 -147 -202 -4 0 -15 14 -23 31 -14 27 -14 33 -2 52 8
12 107 155 221 317 265 378 259 320 61 602 -80 113 -145 209 -145 212 0 3 27
6 61 6 l61 0 -31 52 -30 53 -75 5 -75 5 -350 500 -351 500 -349 5 c-192 3
-353 8 -357 12 -4 5 0 16 9 26 15 16 13 24 -24 104 -22 48 -42 96 -44 108 -2
11 -22 54 -45 94 l-40 74 122 6 c188 10 316 20 320 26 16 19 48 69 48 74 0 3
-45 6 -100 6 -55 0 -100 3 -100 6 0 9 222 324 229 324 3 0 25 -36 49 -80 24
-44 48 -78 53 -74 5 3 16 1 24 -6 10 -8 19 -8 33 -1 16 8 20 21 19 61 0 28 3
53 6 57 4 3 -10 34 -29 69 l-36 64 81 0 c45 0 81 4 81 9 0 5 15 14 33 21 60
23 99 45 108 62 8 14 3 17 -30 20 l-38 3 98 140 c55 77 102 141 106 142 5 2
42 -61 84 -140 l76 -142 -33 -3 c-56 -5 -43 -27 45 -76 57 -33 70 -36 139 -36
41 0 72 3 69 6 -4 4 5 20 18 36 34 40 20 68 -34 68 l-38 0 -100 188 -101 187
329 3 c181 1 477 1 658 0 l329 -3 -141 -263 -141 -264 -23 28 c-25 31 -24 31
-46 -12 -10 -19 -14 -46 -11 -71 3 -23 6 -56 8 -75 3 -36 80 -155 90 -139 5 7
15 7 33 0 20 -7 28 -6 35 3 4 7 8 9 8 3 1 -5 10 7 21 28 l20 38 -21 28 c-11
16 -20 32 -20 35 0 3 58 115 130 248 l130 243 0 138 0 137 -2560 0 -2560 0 0
-2560z m2468 1249 c30 -55 64 -110 77 -123 13 -13 33 -42 44 -65 l21 -41 -215
0 c-118 0 -215 3 -215 6 0 9 222 324 229 324 3 0 30 -45 59 -101z m262 -332
c259 7 428 7 450 1 17 -5 26 -15 27 -30 3 -31 -134 -292 -176 -337 -32 -34
-95 -144 -96 -167 0 -6 -9 -29 -19 -52 l-19 -41 -78 112 -78 112 -328 5 -328
5 -97 193 -97 192 87 1 c48 1 182 5 297 9 116 4 246 5 290 1 44 -3 118 -5 165
-4z m-906 -190 c27 -50 64 -115 82 -144 19 -28 34 -54 34 -57 0 -3 -85 -6
-190 -6 -104 0 -190 2 -190 5 0 9 203 295 209 295 3 0 28 -42 55 -93z m1535
83 c22 -11 80 -99 86 -129 5 -25 86 -144 93 -136 3 2 17 -15 33 -38 16 -23 42
-58 59 -77 16 -19 30 -39 30 -44 0 -11 67 -103 101 -139 14 -15 32 -40 40 -55
8 -15 35 -57 62 -94 26 -37 50 -76 52 -87 5 -29 52 -95 84 -119 28 -20 163
-204 216 -293 37 -63 57 -110 50 -118 -10 -9 -518 -14 -670 -6 l-130 7 -247
351 c-241 344 -246 352 -232 378 7 15 17 29 22 31 12 4 82 132 82 149 0 23
178 374 204 402 27 29 38 32 65 17z m-846 -508 c-32 -59 -179 -336 -328 -614
-148 -279 -272 -507 -275 -507 -3 0 -126 228 -275 507 -148 278 -296 555 -328
614 l-57 108 660 0 660 0 -57 -108z m-1033 -628 c190 -355 345 -655 345 -667
l0 -22 -818 -3 c-450 -1 -817 2 -815 6 7 19 932 1332 937 1332 3 0 161 -291
351 -646z m1681 -16 c255 -363 466 -665 467 -670 2 -4 -365 -7 -815 -6 l-818
3 0 22 c0 21 684 1313 696 1313 3 0 215 -298 470 -662z m1087 -284 c17 -5 21
-11 17 -28 -7 -23 -131 -210 -156 -235 -9 -9 -48 -61 -88 -116 -39 -55 -87
-120 -106 -145 -20 -25 -53 -75 -75 -112 -22 -37 -62 -94 -88 -126 -26 -33
-110 -150 -187 -260 -77 -111 -144 -200 -148 -199 -5 1 -18 19 -29 39 l-21 36
227 323 c287 410 278 350 91 616 -74 106 -135 195 -135 197 0 9 100 12 390 14
157 1 295 -1 308 -4z m321 -263 c-15 -5 -22 6 -14 19 6 9 10 9 16 -1 5 -8 4
-15 -2 -18z m-2819 -246 c0 -11 -702 -1215 -709 -1215 -6 1 -843 1193 -849
1211 -2 5 326 9 777 9 430 0 781 -2 781 -5z m1878 -4 c-6 -18 -843 -1210 -849
-1211 -7 0 -709 1204 -709 1215 0 3 351 5 781 5 451 0 779 -4 777 -9z m-1341
-664 l372 -642 -374 -3 c-206 -1 -544 -1 -750 0 l-374 3 372 642 c205 353 374
642 377 642 3 0 172 -289 377 -642z m1642 384 c-15 -5 -22 6 -14 19 6 9 10 9
16 -1 5 -8 4 -15 -2 -18z m-651 -529 c-27 -5 -32 2 -16 27 l13 21 12 -23 c10
-19 9 -22 -9 -25z"/>
<path d="M3260 4058 l29 -53 82 -3 c44 -2 79 1 77 5 -2 4 -14 29 -28 56 l-24
47 -83 0 -83 0 30 -52z"/>
<path d="M4223 4029 c-11 -19 -48 -86 -82 -150 l-61 -116 47 -67 47 -68 28 55
c15 31 31 58 36 61 12 7 76 -119 69 -137 -4 -12 -18 -17 -42 -17 l-36 0 15
-27 c22 -44 105 -153 115 -153 5 0 13 9 16 20 3 11 9 20 13 20 6 0 191 -315
200 -340 2 -5 -6 -10 -18 -12 -19 -3 -18 -6 15 -55 21 -32 43 -53 54 -53 24 0
271 -370 271 -406 0 -14 26 -70 59 -125 l58 -100 37 53 c21 31 36 65 36 82 0
35 -116 237 -222 387 -56 80 -68 103 -57 110 8 5 10 9 5 9 -4 0 -1 11 7 24 15
23 15 24 -24 41 -21 10 -39 22 -39 26 0 4 -11 9 -24 11 -20 2 -72 70 -260 338
l-234 334 31 61 c23 46 31 76 34 130 3 85 -5 104 -41 87 -18 -8 -26 -8 -28 0
-2 6 -14 -4 -25 -23z"/>
<path d="M3608 3548 l-37 -71 34 -68 c19 -37 38 -70 43 -73 14 -9 112 206 112
247 0 4 -20 7 -45 7 -31 0 -47 5 -51 15 -10 25 -18 18 -56 -57z"/>
</g>
</svg>
